{"title":"The Hobbit the Desolation of Smaug(2013)MPEG-4[DaScubaDude]","uid":14786591,"size":1762658710,"categoryP":"video","categoryS":"movies","magnet":"?xt=urn:btih:797ac34a4fdac1ee15bcd1bd0ef6148df3131948&amp;dn=The+Hobbit+the+Desolation+of+Smaug%282013%29MPEG-4%5BDaScubaDude%5D&amp;tr=udp%3A%2F%2Ftracker.leechers-paradise.org%3A6969&amp;tr=udp%3A%2F%2Fzer0day.ch%3A1337&amp;tr=udp%3A%2F%2Fopen.demonii.com%3A1337&amp;tr=udp%3A%2F%2Ftracker.coppersurfer.tk%3A6969&amp;tr=udp%3A%2F%2Fexodus.desync.com%3A6969","seeders":0,"leechers":1,"uploader":"dascuba","files":1,"time":1465022331,"description":"The Hobbit: The Desolation of Smaug (2013)\r\nPG-13 | 2h 41min | Adventure, Fantasy | 13 December 2013 (USA)\r\nThe dwarves, along with Bilbo Baggins and Gandalf the Grey, continue their quest to reclaim Erebor, their homeland, from Smaug. Bilbo Baggins is in possession of a mysterious and magical ring.\r\nDirector: Peter Jackson\r\nWriters: Fran Walsh (screenplay), Philippa Boyens (screenplay) |\r\nStars: Ian McKellen, Martin Freeman, Richard Armitage |\r\n\r\nGeneral\r\nComplete name                            : The Hobbit-TDoSHOBBIT_DESOLATION_OF_SMAUG_D1_Title1.mp4\r\nFormat                                   : MPEG-4\r\nFormat profile                           : Base Media\r\nCodec ID                                 : isom (isom/iso2/avc1/mp41)\r\nFile size                                : 1.64 GiB\r\nDuration                                 : 2h 41mn\r\nOverall bit rate                         : 1 458 Kbps\r\nMovie name                               : HOBBIT_DESOLATION_OF_SMAUG_D1\r\nWriting application                      : Lavf54.6.100\r\n\r\nVideo\r\nID                                       : 1\r\nFormat                                   : AVC\r\nFormat/Info                              : Advanced Video Codec\r\nFormat profile                           :   \r\nFormat settings, CABAC                   : No\r\nFormat settings, ReFrames                : 6 frames\r\nCodec ID                                 : avc1\r\nCodec ID/Info                            : Advanced Video Coding\r\nDuration                                 : 2h 41mn\r\nBit rate                                 : 1 195 Kbps\r\nWidth                                    : 720 pixels\r\nHeight                                   : 404 pixels\r\nDisplay aspect ratio                     : 16:9\r\nFrame rate mode                          : Constant\r\nFrame rate                               : 29.970 (30000/1001) fps\r\nColor space                              : YUV\r\nChroma subsampling                       : 4:2:0\r\nBit depth                                : 8 bits\r\nScan type                                : Progressive\r\nBits/(Pixel*Frame)                       : 0.137\r\nStream size                              : 1.34 GiB (82%)\r\n\r\nAudio\r\nID                                       : 2\r\nFormat                                   : AAC\r\nFormat/Info                              : Advanced Audio Codec\r\nFormat profile                           : LC\r\nCodec ID                                 : 40\r\nDuration                                 : 2h 41mn\r\nBit rate mode                            : Constant\r\nBit rate                                 : 257 Kbps\r\nChannel(s)                               : 2 channels\r\nChannel(s)_Original                      : 6 channels\r\nChannel positions                        : Front: L C R, Side: L R, LFE\r\nSampling rate                            : 44.1 KHz\r\nFrame rate                               : 43.066 fps (1024 spf)\r\nCompression mode                         : Lossy\r\nStream size                              : 296 MiB (18%)\r\nDefault                                  : Yes\r\nAlternate group                          : 1","torrent":{"xt":"urn:btih:797ac34a4fdac1ee15bcd1bd0ef6148df3131948","amp;dn":"The+Hobbit+the+Desolation+of+Smaug%282013%29MPEG-4%5BDaScubaDude%5D","amp;tr":["udp%3A%2F%2Ftracker.leechers-paradise.org%3A6969","udp%3A%2F%2Fzer0day.ch%3A1337","udp%3A%2F%2Fopen.demonii.com%3A1337","udp%3A%2F%2Ftracker.coppersurfer.tk%3A6969","udp%3A%2F%2Fexodus.desync.com%3A6969"],"infoHash":"797ac34a4fdac1ee15bcd1bd0ef6148df3131948","infoHashBuffer":{"type":"Buffer","data":[121,122,195,74,79,218,193,238,21,188,209,189,14,246,20,141,243,19,25,72]},"announce":[],"urlList":[]}}